<?xml version="1.0" standalone="no"?>
<!DOCTYPE svg PUBLIC "-//W3C//DTD SVG 20010904//EN"
 "http://www.w3.org/TR/2001/REC-SVG-20010904/DTD/svg10.dtd">
<svg version="1.0" xmlns="http://www.w3.org/2000/svg"
 width="450.000000pt" height="450.000000pt" viewBox="0 0 450.000000 450.000000"
 preserveAspectRatio="xMidYMid meet">

<g transform="translate(0.000000,450.000000) scale(0.100000,-0.100000)"
fill="#000000" stroke="none">
<path d="M966 4492 c-3 -5 -49 -12 -102 -15 -53 -4 -102 -11 -108 -16 -6 -5
-28 -12 -49 -16 -20 -4 -40 -11 -43 -16 -3 -5 -12 -9 -21 -9 -14 0 -41 -10
-103 -39 -40 -18 -93 -51 -116 -72 -11 -10 -25 -19 -30 -19 -14 0 -184 -170
-195 -195 -9 -21 -31 -57 -39 -65 -20 -20 -67 -115 -75 -150 -4 -17 -10 -30
-15 -30 -5 0 -12 -21 -16 -47 -3 -27 -10 -53 -15 -59 -5 -6 -12 -52 -16 -103
-3 -50 -10 -91 -14 -91 -12 0 -12 -2607 -1 -2614 5 -3 12 -47 16 -98 3 -50 10
-94 15 -97 5 -3 12 -25 16 -48 4 -24 11 -43 16 -43 5 0 9 -8 9 -19 0 -16 37
-94 98 -207 7 -14 22 -30 33 -37 10 -6 19 -17 19 -24 0 -13 163 -168 196 -186
112 -61 236 -119 267 -124 20 -3 40 -9 42 -14 3 -4 37 -11 75 -15 39 -4 73
-11 76 -15 7 -12 2721 -12 2728 0 3 4 37 11 76 15 38 4 72 11 75 15 2 5 22 11
43 15 22 3 52 13 68 21 16 8 35 15 43 15 8 0 28 10 45 23 17 12 42 28 56 35
14 7 36 19 49 27 37 21 201 175 201 188 0 7 9 18 19 24 11 7 26 23 33 37 61
113 98 191 98 207 0 11 4 19 9 19 6 0 13 21 17 48 3 26 10 52 15 58 5 6 12 52
16 103 3 50 10 91 14 91 5 0 9 585 9 1300 0 715 -4 1300 -9 1300 -4 0 -11 39
-15 87 -3 48 -10 90 -15 93 -4 3 -11 26 -15 52 -4 26 -11 50 -16 53 -4 3 -11
22 -15 43 -4 20 -18 55 -31 77 -13 22 -26 48 -30 58 -3 9 -10 17 -15 17 -5 0
-9 6 -9 13 0 8 -9 22 -20 32 -11 10 -20 23 -20 29 0 13 -171 186 -184 186 -4
0 -25 13 -45 28 -20 15 -47 33 -61 40 -14 6 -32 16 -40 21 -28 17 -88 41 -103
41 -9 0 -18 4 -21 9 -4 5 -25 12 -49 16 -23 4 -47 11 -53 16 -6 5 -52 12 -103
16 -50 3 -94 10 -97 15 -7 11 -2561 11 -2568 0z m2272 -708 c25 -12 32 -22 32
-45 0 -16 5 -29 10 -29 13 0 14 -2223 0 -2248 -5 -9 -12 -43 -15 -74 -4 -32
-10 -58 -15 -58 -5 0 -11 -13 -15 -29 -3 -16 -13 -32 -21 -35 -8 -3 -14 -11
-14 -19 0 -33 -145 -137 -192 -137 -8 0 -19 -5 -24 -10 -6 -6 -41 -13 -78 -17
-36 -3 -69 -10 -72 -14 -7 -12 -111 -11 -119 1 -3 6 -17 10 -30 10 -56 0 -204
109 -221 162 -3 13 -12 26 -18 30 -16 11 -15 243 2 259 6 7 12 21 12 31 0 27
109 132 165 157 28 13 57 27 65 31 9 4 39 11 68 15 29 4 54 10 57 15 3 4 36
11 75 15 39 4 73 11 76 16 3 5 16 9 30 9 35 0 94 34 113 67 14 25 16 87 16
585 0 646 9 594 -101 591 -37 -1 -71 -7 -78 -12 -6 -5 -45 -13 -86 -16 -41 -4
-79 -11 -85 -15 -5 -5 -40 -11 -78 -15 -37 -4 -70 -11 -72 -15 -3 -5 -31 -12
-63 -16 -31 -3 -61 -10 -67 -14 -5 -5 -40 -11 -78 -15 -37 -4 -69 -11 -72 -15
-3 -4 -36 -11 -75 -15 -39 -4 -72 -11 -75 -15 -3 -4 -36 -11 -75 -15 -39 -4
-72 -11 -75 -15 -3 -4 -36 -11 -75 -15 -39 -4 -73 -11 -76 -16 -3 -5 -18 -9
-34 -9 -18 0 -42 -12 -65 -31 l-35 -31 0 -824 c0 -456 -4 -824 -9 -824 -4 0
-11 -19 -14 -42 -3 -24 -17 -63 -32 -88 -14 -25 -28 -52 -31 -60 -9 -24 -111
-104 -147 -115 -17 -5 -38 -14 -44 -18 -7 -4 -35 -11 -63 -14 -28 -3 -53 -10
-56 -14 -7 -12 -201 -12 -208 0 -3 5 -23 12 -43 16 -29 5 -54 24 -110 81 -40
40 -73 82 -73 92 0 10 -5 23 -12 30 -16 16 -16 221 0 231 6 3 14 19 17 34 4
15 11 27 16 27 5 0 9 5 9 12 0 14 70 88 83 88 4 0 23 11 40 24 18 13 48 27 67
31 19 4 40 11 45 15 6 5 37 11 70 15 33 4 65 11 70 15 6 5 40 11 78 15 37 4
70 11 73 16 3 5 13 9 22 9 20 1 62 33 62 48 0 6 6 12 13 14 9 4 13 198 15 916
1 590 6 912 12 912 6 0 10 9 10 19 0 29 58 69 110 77 25 4 50 10 55 14 6 4 39
11 75 15 36 4 70 11 75 15 6 4 39 11 75 15 36 4 70 11 75 15 6 4 39 11 75 15
36 4 70 11 75 15 6 4 39 11 75 15 36 4 70 11 75 15 6 4 39 11 75 15 36 4 70
11 75 15 6 4 39 11 75 15 36 4 70 11 75 15 6 4 36 11 67 14 32 4 60 11 63 16
3 4 36 11 75 15 39 4 72 11 75 15 3 5 41 12 85 16 44 3 83 11 86 15 9 14 68
10 102 -7z"/>
</g>
</svg>
